<svg xmlns="http://www.w3.org/2000/svg" viewBox="0 0 767.41 119.77"><defs><style>.cls-1{fill:#f76a16;}.cls-2{fill:#fff;}</style></defs><g id="Layer_2" data-name="Layer 2"><g id="Layer_1-2" data-name="Layer 1"><path class="cls-1" d="M731.68,56.47c-3.4,19.67-8.55,17.1,9.58,28.3,8.48,5.53.35,21.83.62,30.6-.63,4.23-4.5,4.31-7.19,4.4-7.36-.64-2.33-15.89-3.09-21.16.39-6.43-11.1-9.88-15.15-14.37-6.35-4.67-4.57,21.09-15.49,18.94-6.49-1.54-27,4.07-27-5,.47-13.29,21.88-.75,25.14-11.38,4-11.57,8.35-23,12.39-34.6.44-1.25,2.74-3.31.47-4-2.11-.68-5.37-1.6-6.82,2-3.4,5.36-4.25,18.73-13.07,15.71-9-4.18,3-18.44,4.16-25.31,1.52-3.79,4-5.88,8.37-5.62C715,36.74,731,28.6,737.73,39.45c4.89,11.73,7.88,17.92,21.68,16.53,2.53-.2,5.08-.08,6.79,2.16,6.66,14.43-15.94,9-23.57,9.86C735.94,67.64,736.21,60.47,731.68,56.47Z"/><path class="cls-1" d="M741.28,0C750-.08,756.9,7.07,756.91,16.24a15.56,15.56,0,0,1-31.12.32C725.64,7.37,732.46.09,741.28,0Z"/><path class="cls-2" d="M43.47,110.79,41.8,100.62c0-.5-.3-.76-.91-.76H24.35a.82.82,0,0,0-.91.61l-2.12,10.32a1.82,1.82,0,0,1-2,1.67H1.75c-1.42,0-2-.66-1.67-2L20.26,26.43a2,2,0,0,1,2.12-1.51H42.86A2,2,0,0,1,45,26.43l20.33,84.05v.61c0,.91-.56,1.37-1.67,1.37H45.44A1.71,1.71,0,0,1,43.47,110.79ZM27.69,83.33H37.86c.5,0,.7-.25.6-.76L33.61,54.05c-.1-.31-.25-.46-.46-.46s-.35.15-.45.46L26.93,82.57C26.83,83.08,27.09,83.33,27.69,83.33Z"/><path class="cls-2" d="M126.08,42.74a1.75,1.75,0,0,1-1.29.53H96.26a.67.67,0,0,0-.75.76V58.6a.67.67,0,0,0,.75.76H112.2A1.83,1.83,0,0,1,114,61.18V75.89a1.83,1.83,0,0,1-1.82,1.82H96.26a.67.67,0,0,0-.75.76v32.17a1.83,1.83,0,0,1-1.82,1.82H75.94a1.83,1.83,0,0,1-1.82-1.82V26.74a1.72,1.72,0,0,1,.53-1.29,1.76,1.76,0,0,1,1.29-.53h48.85a1.79,1.79,0,0,1,1.29.53,1.76,1.76,0,0,1,.53,1.29V41.45A1.76,1.76,0,0,1,126.08,42.74Z"/><path class="cls-2" d="M189.79,25.45a1.73,1.73,0,0,1,.54,1.29V41.45a1.83,1.83,0,0,1-1.82,1.82h-17a.68.68,0,0,0-.76.76v66.61a1.83,1.83,0,0,1-1.82,1.82H151.18a1.83,1.83,0,0,1-1.82-1.82V44a.67.67,0,0,0-.76-.76H131.92a1.81,1.81,0,0,1-1.82-1.82V26.74a1.72,1.72,0,0,1,.53-1.29,1.76,1.76,0,0,1,1.29-.53h56.59A1.75,1.75,0,0,1,189.79,25.45Z"/><path class="cls-2" d="M250.33,42.74a1.75,1.75,0,0,1-1.29.53H220.51a.67.67,0,0,0-.75.76V58.6a.67.67,0,0,0,.75.76h15.78a1.81,1.81,0,0,1,1.82,1.82V75.89a1.81,1.81,0,0,1-1.82,1.82H220.51a.67.67,0,0,0-.75.76V93.34a.67.67,0,0,0,.75.76H249a1.79,1.79,0,0,1,1.29.53,1.76,1.76,0,0,1,.53,1.29v14.72a1.83,1.83,0,0,1-1.82,1.82H200.19a1.83,1.83,0,0,1-1.82-1.82V26.74a1.72,1.72,0,0,1,.53-1.29,1.76,1.76,0,0,1,1.29-.53H249a1.79,1.79,0,0,1,1.29.53,1.76,1.76,0,0,1,.53,1.29V41.45A1.76,1.76,0,0,1,250.33,42.74Z"/><path class="cls-2" d="M296.37,110.94l-9.71-32.47c-.2-.4-.45-.6-.76-.6h-3.79a.67.67,0,0,0-.76.75v32a1.83,1.83,0,0,1-1.82,1.82H261.78a1.83,1.83,0,0,1-1.82-1.82v-84a1.81,1.81,0,0,1,1.82-1.82h29a27.9,27.9,0,0,1,14,3.49,24.5,24.5,0,0,1,9.56,9.7,29.26,29.26,0,0,1,3.41,14.27A27.5,27.5,0,0,1,314.88,65a22.5,22.5,0,0,1-8.19,9,1.11,1.11,0,0,0-.46.38.5.5,0,0,0,0,.53l12,35.5a1.75,1.75,0,0,1,.15.76c0,.91-.51,1.37-1.52,1.37H298.34A1.9,1.9,0,0,1,296.37,110.94Zm-15-67.06V60.72a.67.67,0,0,0,.76.76h5a9.45,9.45,0,0,0,6.75-2.35q2.5-2.35,2.5-6.75a9.08,9.08,0,0,0-2.5-6.83,9.28,9.28,0,0,0-6.75-2.43h-5A.67.67,0,0,0,281.35,43.88Z"/><path class="cls-1" d="M324.89,111.92a1.64,1.64,0,0,1-.15-1.59L358,7.77a1.91,1.91,0,0,1,2-1.51h17.75a1.67,1.67,0,0,1,1.36.53,1.67,1.67,0,0,1,.15,1.59L346,110.94a1.91,1.91,0,0,1-2,1.52H326.26A1.69,1.69,0,0,1,324.89,111.92Z"/><path class="cls-2" d="M426,25.45a1.79,1.79,0,0,1,1.29-.53H445a1.76,1.76,0,0,1,1.29.53,1.73,1.73,0,0,1,.54,1.29v83.9a1.84,1.84,0,0,1-1.83,1.82H427.29a1.83,1.83,0,0,1-1.82-1.82V78.47a.67.67,0,0,0-.75-.76h-12a.67.67,0,0,0-.76.76v32.17a1.83,1.83,0,0,1-1.82,1.82H392.4a1.73,1.73,0,0,1-1.29-.54,1.75,1.75,0,0,1-.53-1.28V26.74a1.81,1.81,0,0,1,1.82-1.82h17.75A1.81,1.81,0,0,1,412,26.74V58.6a.67.67,0,0,0,.76.76h12a.67.67,0,0,0,.75-.76V26.74A1.76,1.76,0,0,1,426,25.45Z"/><path class="cls-2" d="M498.9,110.79l-1.67-10.17c0-.5-.3-.76-.91-.76H479.79a.82.82,0,0,0-.91.61l-2.13,10.32a1.82,1.82,0,0,1-2,1.67h-17.6c-1.42,0-2-.66-1.67-2l20.18-84.05a2,2,0,0,1,2.12-1.51H498.3a2,2,0,0,1,2.12,1.51l20.33,84.05v.61c0,.91-.56,1.37-1.67,1.37H500.87A1.71,1.71,0,0,1,498.9,110.79ZM483.12,83.33h10.17c.5,0,.7-.25.61-.76L489,54.05c-.1-.31-.25-.46-.45-.46s-.36.15-.46.46l-5.76,28.52C482.26,83.08,482.52,83.33,483.12,83.33Z"/><path class="cls-2" d="M533.26,106.24q-7.82-7.29-7.81-20.18V51.16q0-12.88,7.74-20.1t20.93-7.2q13.05,0,20.86,7.2t7.82,20.1v.76A1.81,1.81,0,0,1,581,53.74l-17.75.76a1.61,1.61,0,0,1-1.82-1.82V49.5a7.1,7.1,0,0,0-2-5.39,8.37,8.37,0,0,0-10.62,0,7.14,7.14,0,0,0-2,5.39V87.88a7.11,7.11,0,0,0,2,5.38,8.37,8.37,0,0,0,10.62,0,7.08,7.08,0,0,0,2-5.38V84.54c0-1.11.6-1.67,1.82-1.67l17.75.76a1.81,1.81,0,0,1,1.82,1.82v.61q0,12.73-7.82,20.1t-20.86,7.36Q541.07,113.52,533.26,106.24Z"/><path class="cls-2" d="M592.89,111.92a1.71,1.71,0,0,1-.53-1.28V26.74a1.72,1.72,0,0,1,.53-1.29,1.76,1.76,0,0,1,1.29-.53h17.75a1.79,1.79,0,0,1,1.29.53,1.76,1.76,0,0,1,.53,1.29V54.5c0,.41.1.61.3.61s.4-.15.61-.46l16.23-28.52a2.5,2.5,0,0,1,2.28-1.21H652c.71,0,1.16.2,1.36.6a1.63,1.63,0,0,1-.15,1.52L634.08,61.33a3.63,3.63,0,0,0-.15.91l20.17,48.09a2.17,2.17,0,0,1,.15.91c0,.81-.5,1.22-1.51,1.22H633.93a2,2,0,0,1-2.13-1.37L619.21,80.9c-.1-.3-.25-.43-.46-.38a1.34,1.34,0,0,0-.6.38L614.05,88a2.39,2.39,0,0,0-.3.91v21.7a1.83,1.83,0,0,1-1.82,1.82H594.18A1.73,1.73,0,0,1,592.89,111.92Z"/></g></g></svg>